<svg width="15" height="12" viewBox="0 0 15 12" fill="none" xmlns="http://www.w3.org/2000/svg">
<path d="M14.2804 5.21996L9.28039 0.219965C9.17553 0.114995 9.0419 0.0434818 8.8964 0.0144742C8.75089 -0.0145335 8.60005 0.000267383 8.46296 0.0570042C8.32587 0.113741 8.20868 0.209864 8.12623 0.333214C8.04378 0.456564 7.99977 0.601597 7.99976 0.749965V3.04622C6.38976 3.24122 4.64601 4.03934 3.20289 5.26309C1.38039 6.80934 0.245386 8.80622 0.00663617 10.8881C-0.0175507 11.097 0.0247453 11.3082 0.12751 11.4917C0.230274 11.6752 0.388275 11.8216 0.579045 11.9102C0.769814 11.9987 0.98364 12.0248 1.19012 11.9849C1.39659 11.9449 1.58521 11.8408 1.72914 11.6875C2.38289 10.9912 4.66664 8.82872 7.99976 8.53622V10.75C7.99989 10.8982 8.04395 11.0431 8.12637 11.1663C8.20879 11.2895 8.32588 11.3855 8.46284 11.4423C8.5998 11.499 8.7505 11.5138 8.8959 11.4849C9.0413 11.456 9.17488 11.3847 9.27976 11.28L14.2798 6.27997C14.4203 6.13942 14.4993 5.94885 14.4994 5.75009C14.4995 5.55134 14.4208 5.36067 14.2804 5.21996ZM9.49976 8.93747V7.74997C9.49976 7.55105 9.42074 7.36029 9.28009 7.21964C9.13944 7.07898 8.94868 6.99997 8.74976 6.99997C5.68726 6.99997 3.33914 8.34747 1.88789 9.50684C2.33351 8.37184 3.11476 7.30559 4.17351 6.40746C5.58101 5.21309 7.29164 4.49997 8.74976 4.49997C8.94868 4.49997 9.13944 4.42095 9.28009 4.2803C9.42074 4.13964 9.49976 3.94888 9.49976 3.74997V2.56247L12.6873 5.74997L9.49976 8.93747Z" fill="white"/>
</svg>
