<svg width="22" height="21" viewBox="0 0 22 21" fill="none" xmlns="http://www.w3.org/2000/svg">
<path d="M10.8721 5.29688C12.1521 5.29836 13.3791 5.80776 14.2842 6.71289C15.1893 7.61802 15.6987 8.84496 15.7002 10.125L15.6865 10.4814C15.6251 11.3108 15.351 12.1128 14.8867 12.8076C14.3562 13.6016 13.6019 14.2205 12.7197 14.5859C11.8375 14.9513 10.8662 15.0466 9.92969 14.8604C8.9933 14.674 8.13312 14.2142 7.45801 13.5391C6.78289 12.8639 6.32307 12.0038 6.13672 11.0674C5.95043 10.1309 6.04574 9.15954 6.41113 8.27734C6.77655 7.39515 7.39551 6.64087 8.18945 6.11035C8.88429 5.64608 9.68625 5.37195 10.5156 5.31055L10.8721 5.29688ZM11.8945 7.65625C11.4063 7.45406 10.8688 7.4018 10.3506 7.50488C9.83241 7.60802 9.35602 7.86176 8.98242 8.23535C8.60883 8.60895 8.35508 9.08534 8.25195 9.60352C8.14887 10.1218 8.20113 10.6593 8.40332 11.1475C8.60555 11.6357 8.94831 12.0531 9.3877 12.3467C9.82707 12.6402 10.3437 12.7969 10.8721 12.7969C11.5807 12.7969 12.2606 12.5157 12.7617 12.0146C13.2628 11.5136 13.5439 10.8336 13.5439 10.125C13.5439 9.59658 13.3873 9.08 13.0938 8.64062C12.8002 8.20124 12.3828 7.85848 11.8945 7.65625ZM3.40234 14.3643L3.37793 14.3506L0.770508 12.8652C0.635928 12.7889 0.519384 12.6839 0.428711 12.5586C0.338019 12.4332 0.274442 12.2895 0.244141 12.1377C-0.0194298 10.8097 -0.0194873 9.44226 0.244141 8.11426C0.274206 7.9624 0.337214 7.81894 0.427734 7.69336C0.518437 7.56762 0.635662 7.46226 0.770508 7.38574L3.37207 5.9043L3.39551 5.89062V5.86328L3.4082 2.9248C3.40895 2.76924 3.44406 2.61563 3.50977 2.47461C3.57552 2.33353 3.67131 2.20807 3.79004 2.10742C4.83496 1.22121 6.03857 0.541175 7.33691 0.103516C7.47972 0.0553474 7.63118 0.0378342 7.78125 0.0517578C7.93126 0.0657052 8.07655 0.110968 8.20801 0.18457L10.8496 1.66016L10.8721 1.67285L10.8945 1.66016L13.5361 0.185547C13.6674 0.112386 13.8123 0.0675155 13.9619 0.0537109C14.1116 0.0399462 14.2628 0.0574437 14.4053 0.105469C15.7034 0.541365 16.9078 1.21904 17.9531 2.10352C18.0722 2.20429 18.1675 2.33025 18.2334 2.47168C18.2993 2.61302 18.3344 2.76692 18.335 2.92285L18.3447 5.8584V5.88574L18.3682 5.89941L20.9736 7.38477C21.1084 7.46099 21.2256 7.56598 21.3164 7.69141C21.4072 7.81681 21.4696 7.96049 21.5 8.1123C21.7642 9.44025 21.765 10.8076 21.502 12.1357C21.4719 12.2875 21.4098 12.4311 21.3193 12.5566C21.2286 12.6824 21.1114 12.7877 20.9766 12.8643L18.3691 14.3457L18.3457 14.3594V14.3867L18.333 17.3252C18.3323 17.4808 18.2971 17.6344 18.2314 17.7754C18.1657 17.9164 18.0708 18.042 17.9521 18.1426C16.9071 19.0289 15.7028 19.7088 14.4043 20.1465C14.2615 20.1946 14.11 20.2122 13.96 20.1982C13.81 20.1843 13.6646 20.139 13.5332 20.0654L10.8945 18.5898L10.8721 18.5771L10.8496 18.5898L8.21094 20.0645C8.07972 20.1376 7.93476 20.1825 7.78516 20.1963C7.63548 20.2101 7.48423 20.1925 7.3418 20.1445C6.0437 19.7086 4.83931 19.0309 3.79395 18.1465C3.67482 18.0457 3.5796 17.9197 3.51367 17.7783C3.44781 17.637 3.41272 17.4831 3.41211 17.3271L3.40234 14.3916V14.3643ZM16.1797 3.44531L16.1611 3.43164C15.5494 2.97454 14.8804 2.59973 14.1709 2.31738L14.1504 2.30859L14.1309 2.31934L11.582 3.74414C11.4135 3.83736 11.2228 3.88346 11.0303 3.87891H10.7061C10.513 3.88406 10.3218 3.83765 10.1533 3.74316L7.6084 2.31836L7.58887 2.30762L7.56738 2.31641C6.85931 2.59898 6.19191 2.97418 5.58203 3.43164L5.56348 3.44531V3.46875L5.55273 6.31152C5.55198 6.46202 5.52001 6.61069 5.45898 6.74707L5.38867 6.87891C5.33339 6.96791 5.27871 7.05666 5.22754 7.15137C5.13146 7.32322 4.99053 7.46624 4.81934 7.56348L2.29883 8.99609L2.27832 9.00684L2.27539 9.03027C2.17686 9.75738 2.17686 10.4946 2.27539 11.2217L2.27832 11.2441L2.29883 11.2559L4.82031 12.6973H4.82129C4.99195 12.7938 5.13278 12.9353 5.22852 13.1064C5.27951 13.198 5.33418 13.2896 5.38867 13.3779L5.38965 13.3789C5.4961 13.549 5.55285 13.7456 5.55371 13.9463L5.56348 16.7812L5.56445 16.8047L5.58301 16.8184C6.19469 17.2755 6.86375 17.6503 7.57324 17.9326L7.59375 17.9414L7.61328 17.9307L10.1621 16.5088C10.3306 16.4155 10.5213 16.3685 10.7139 16.373H11.0645C11.2487 16.3731 11.43 16.4207 11.5908 16.5107L14.1357 17.9346L14.1553 17.9463L14.1768 17.9375C14.8851 17.6538 15.5524 17.2771 16.1621 16.8184L16.1807 16.8047V16.7812L16.1943 13.9385C16.1951 13.788 16.2271 13.6393 16.2881 13.5029L16.3584 13.3711L16.5195 13.0986C16.6152 12.9265 16.7564 12.7837 16.9277 12.6865L19.4482 11.2539L19.4678 11.2432L19.4717 11.2197C19.5696 10.4912 19.5686 9.75265 19.4688 9.02441L19.4658 9.00195L19.4453 8.99023L16.9238 7.55273H16.9229C16.7522 7.45622 16.6114 7.31465 16.5156 7.14355C16.4646 7.05196 16.41 6.96039 16.3555 6.87207L16.3545 6.87109C16.248 6.70097 16.1913 6.50439 16.1904 6.30371L16.1807 3.46875L16.1797 3.44531Z" fill="#475569" stroke="#475569" stroke-width="0.09375"/>
</svg>
