<svg width="26" height="26" viewBox="0 0 26 26" fill="none" xmlns="http://www.w3.org/2000/svg">
<path d="M15.75 8.3125H9.625C9.2769 8.3125 8.94306 8.45078 8.69692 8.69692C8.45078 8.94306 8.3125 9.2769 8.3125 9.625V15.75C8.3125 16.0981 8.45078 16.4319 8.69692 16.6781C8.94306 16.9242 9.2769 17.0625 9.625 17.0625H15.75C16.0981 17.0625 16.4319 16.9242 16.6781 16.6781C16.9242 16.4319 17.0625 16.0981 17.0625 15.75V9.625C17.0625 9.2769 16.9242 8.94306 16.6781 8.69692C16.4319 8.45078 16.0981 8.3125 15.75 8.3125ZM14.4375 14.4375H10.9375V10.9375H14.4375V14.4375ZM24.0625 14H22.75V11.375H24.0625C24.4106 11.375 24.7444 11.2367 24.9906 10.9906C25.2367 10.7444 25.375 10.4106 25.375 10.0625C25.375 9.7144 25.2367 9.38056 24.9906 9.13442C24.7444 8.88828 24.4106 8.75 24.0625 8.75H22.75V4.8125C22.75 4.23234 22.5195 3.67594 22.1093 3.2657C21.6991 2.85547 21.1427 2.625 20.5625 2.625H16.625V1.3125C16.625 0.964403 16.4867 0.630564 16.2406 0.384422C15.9944 0.138281 15.6606 0 15.3125 0C14.9644 0 14.6306 0.138281 14.3844 0.384422C14.1383 0.630564 14 0.964403 14 1.3125V2.625H11.375V1.3125C11.375 0.964403 11.2367 0.630564 10.9906 0.384422C10.7444 0.138281 10.4106 0 10.0625 0C9.7144 0 9.38056 0.138281 9.13442 0.384422C8.88828 0.630564 8.75 0.964403 8.75 1.3125V2.625H4.8125C4.23234 2.625 3.67594 2.85547 3.2657 3.2657C2.85547 3.67594 2.625 4.23234 2.625 4.8125V8.75H1.3125C0.964403 8.75 0.630564 8.88828 0.384422 9.13442C0.138281 9.38056 0 9.7144 0 10.0625C0 10.4106 0.138281 10.7444 0.384422 10.9906C0.630564 11.2367 0.964403 11.375 1.3125 11.375H2.625V14H1.3125C0.964403 14 0.630564 14.1383 0.384422 14.3844C0.138281 14.6306 0 14.9644 0 15.3125C0 15.6606 0.138281 15.9944 0.384422 16.2406C0.630564 16.4867 0.964403 16.625 1.3125 16.625H2.625V20.5625C2.625 21.1427 2.85547 21.6991 3.2657 22.1093C3.67594 22.5195 4.23234 22.75 4.8125 22.75H8.75V24.0625C8.75 24.4106 8.88828 24.7444 9.13442 24.9906C9.38056 25.2367 9.7144 25.375 10.0625 25.375C10.4106 25.375 10.7444 25.2367 10.9906 24.9906C11.2367 24.7444 11.375 24.4106 11.375 24.0625V22.75H14V24.0625C14 24.4106 14.1383 24.7444 14.3844 24.9906C14.6306 25.2367 14.9644 25.375 15.3125 25.375C15.6606 25.375 15.9944 25.2367 16.2406 24.9906C16.4867 24.7444 16.625 24.4106 16.625 24.0625V22.75H20.5625C21.1427 22.75 21.6991 22.5195 22.1093 22.1093C22.5195 21.6991 22.75 21.1427 22.75 20.5625V16.625H24.0625C24.4106 16.625 24.7444 16.4867 24.9906 16.2406C25.2367 15.9944 25.375 15.6606 25.375 15.3125C25.375 14.9644 25.2367 14.6306 24.9906 14.3844C24.7444 14.1383 24.4106 14 24.0625 14ZM20.125 20.125H5.25V5.25H20.125V20.125Z" fill="#4F46E5"/>
</svg>
