<svg width="21" height="21" viewBox="0 0 21 21" fill="none" xmlns="http://www.w3.org/2000/svg">
<path d="M8.35547 0.0517578C10.5351 -0.0195337 12.6602 0.740801 14.2998 2.17871C15.9393 3.61665 16.9709 5.62465 17.1846 7.79492C17.3982 9.96513 16.7778 12.1352 15.4502 13.8652L15.4258 13.8984L15.4541 13.9268L19.9062 18.3809V18.3818L19.9121 18.3857C20.0116 18.4857 20.0906 18.6041 20.1445 18.7344C20.1988 18.8653 20.2265 19.0057 20.2266 19.1475C20.2266 19.2892 20.1987 19.4296 20.1445 19.5605C20.0903 19.6916 20.0105 19.8108 19.9102 19.9111C19.8099 20.0114 19.6906 20.0912 19.5596 20.1455C19.4286 20.1997 19.2882 20.2275 19.1465 20.2275C19.0047 20.2275 18.8644 20.1998 18.7334 20.1455C18.6024 20.0912 18.4831 20.0114 18.3828 19.9111L13.9268 15.4541L13.8984 15.4258L13.8652 15.4502C12.1352 16.7778 9.96513 17.3982 7.79492 17.1846C5.62465 16.9709 3.61665 15.9393 2.17871 14.2998C0.740801 12.6602 -0.0195337 10.5351 0.0517578 8.35547C0.123093 6.17581 1.02042 4.10458 2.5625 2.5625C4.10458 1.02042 6.17581 0.123093 8.35547 0.0517578ZM9.89648 2.3457C8.65087 2.09798 7.35987 2.22495 6.18652 2.71094C5.01313 3.19697 4.01033 4.02016 3.30469 5.07617C2.59911 6.13214 2.22175 7.37355 2.22168 8.64355C2.22343 10.346 2.90077 11.9787 4.10449 13.1826C5.30837 14.3865 6.94103 15.0636 8.64355 15.0654C9.91368 15.0654 11.1558 14.689 12.2119 13.9834C13.2679 13.2778 14.0911 12.2749 14.5771 11.1016C15.0632 9.92812 15.1902 8.63635 14.9424 7.39062C14.6945 6.14507 14.0826 5.00055 13.1846 4.10254C12.2865 3.20462 11.142 2.59346 9.89648 2.3457Z" fill="#475569" stroke="#475569" stroke-width="0.09375"/>
</svg>
