<svg width="21" height="21" viewBox="0 0 21 21" fill="none" xmlns="http://www.w3.org/2000/svg">
<path d="M10.125 0.046875C12.797 0.0498517 15.3587 1.11258 17.248 3.00195C19.1374 4.89132 20.2001 7.45303 20.2031 10.125C20.2031 12.1181 19.6121 14.0664 18.5049 15.7236C17.3975 17.381 15.823 18.6728 13.9814 19.4355C12.14 20.1983 10.114 20.3985 8.15918 20.0098C6.20422 19.6209 4.40847 18.6604 2.99902 17.251C1.58957 15.8415 0.629101 14.0458 0.240234 12.0908C-0.148528 10.136 0.051744 8.10995 0.814453 6.26855C1.57724 4.42702 2.86903 2.85252 4.52637 1.74512C6.08006 0.707091 7.88955 0.122679 9.75195 0.0537109L10.125 0.046875ZM13.1562 2.80566C11.7088 2.20623 10.1156 2.04983 8.5791 2.35547C7.04257 2.66119 5.63123 3.41565 4.52344 4.52344C3.41565 5.63123 2.66119 7.04257 2.35547 8.5791C2.04983 10.1156 2.20623 11.7088 2.80566 13.1562C3.40524 14.6037 4.42093 15.8415 5.72363 16.7119C6.94505 17.528 8.36788 17.9868 9.83203 18.041L10.125 18.0469C12.2253 18.0446 14.2395 17.2098 15.7246 15.7246C17.2098 14.2395 18.0446 12.2253 18.0469 10.125C18.0469 8.5582 17.5824 7.02638 16.7119 5.72363C15.8415 4.42093 14.6037 3.40524 13.1562 2.80566ZM14.0215 11.2881C14.1635 11.3062 14.3009 11.3523 14.4248 11.4238C14.5486 11.4954 14.6566 11.5912 14.7432 11.7051C14.8298 11.8191 14.8929 11.9492 14.9287 12.0879C14.9645 12.2266 14.9728 12.371 14.9521 12.5127C14.9315 12.6544 14.8825 12.7904 14.8086 12.9131V12.9141C13.7852 14.6873 12.0761 15.7031 10.125 15.7031C8.17438 15.7031 6.46864 14.6885 5.44238 12.915C5.30559 12.6679 5.27112 12.3767 5.34668 12.1045C5.42224 11.8323 5.60116 11.6003 5.8457 11.459C6.09024 11.3178 6.38086 11.2782 6.6543 11.3486C6.92761 11.4192 7.16284 11.5942 7.30859 11.8359C7.67667 12.4727 8.53464 13.5469 10.125 13.5469C11.7154 13.5469 12.5734 12.4717 12.9414 11.8359L12.9424 11.835C13.0117 11.7098 13.1054 11.5994 13.2178 11.5107C13.3301 11.4222 13.4588 11.3566 13.5967 11.3184C13.7347 11.28 13.8794 11.27 14.0215 11.2881ZM6.19434 6.90723C6.45968 6.79742 6.75155 6.76921 7.0332 6.8252C7.31508 6.88126 7.57412 7.01943 7.77734 7.22266C7.98057 7.42588 8.11874 7.68492 8.1748 7.9668C8.23079 8.24845 8.20258 8.54032 8.09277 8.80566C7.98284 9.07107 7.79643 9.29835 7.55762 9.45801C7.31865 9.61768 7.0374 9.70312 6.75 9.70312C6.36461 9.70312 5.99517 9.54986 5.72266 9.27734C5.45014 9.00483 5.29688 8.63539 5.29688 8.25C5.29688 7.9626 5.38232 7.68135 5.54199 7.44238C5.70165 7.20357 5.92893 7.01716 6.19434 6.90723ZM13.5 6.79688C13.8854 6.79688 14.2548 6.95014 14.5273 7.22266C14.7999 7.49517 14.9531 7.86461 14.9531 8.25C14.9531 8.5374 14.8677 8.81865 14.708 9.05762C14.5483 9.29643 14.3211 9.48284 14.0557 9.59277C13.7903 9.70257 13.4985 9.73079 13.2168 9.6748C12.9349 9.61874 12.6759 9.48057 12.4727 9.27734C12.2694 9.07412 12.1313 8.81508 12.0752 8.5332C12.0192 8.25155 12.0474 7.95968 12.1572 7.69434C12.2672 7.42893 12.4536 7.20165 12.6924 7.04199C12.9313 6.88232 13.2126 6.79688 13.5 6.79688Z" fill="#475569" stroke="#475569" stroke-width="0.09375"/>
</svg>
